<?xml version="1.0" standalone="no"?>
<!DOCTYPE svg PUBLIC "-//W3C//DTD SVG 20010904//EN"
 "http://www.w3.org/TR/2001/REC-SVG-20010904/DTD/svg10.dtd">
<svg version="1.0" xmlns="http://www.w3.org/2000/svg"
 width="156.000000pt" height="156.000000pt" viewBox="0 0 156.000000 156.000000"
 preserveAspectRatio="xMidYMid meet">
<metadata>
Created by potrace 1.11, written by Peter Selinger 2001-2013
</metadata>
<g transform="translate(0.000000,156.000000) scale(0.100000,-0.100000)"
fill="#000000" stroke="none">
<path d="M676 1442 c-2 -4 -1 -14 4 -22 7 -11 9 -9 7 8 -1 24 -3 26 -11 14z"/>
<path d="M1001 1436 c-15 -18 5 -34 22 -17 9 9 7 10 -8 5 -18 -7 -18 -6 -6 9
7 9 11 17 8 17 -2 0 -10 -6 -16 -14z"/>
<path d="M595 1431 c-6 -11 13 -26 22 -17 4 3 1 6 -6 6 -7 0 -9 5 -6 10 3 6 4
10 1 10 -3 0 -7 -4 -11 -9z"/>
<path d="M869 1414 c8 -16 7 -25 -2 -32 -17 -13 -49 -11 -43 3 2 7 0 18 -5 26
-6 10 -9 11 -10 2 -3 -28 -4 -32 -11 -39 -8 -7 -12 8 -9 36 2 13 0 13 -8 1 -5
-8 -7 -20 -4 -27 3 -9 -2 -12 -16 -9 -30 6 -41 14 -37 28 1 7 1 9 -1 4 -3 -4
-10 -4 -15 -1 -6 4 -8 3 -5 -2 3 -6 -4 -16 -15 -23 -18 -11 -20 -11 -15 1 3 8
1 21 -4 29 -7 11 -9 11 -9 1 0 -7 -4 -11 -9 -8 -10 7 -71 -16 -71 -26 0 -4 -7
-5 -15 -2 -8 4 -15 2 -15 -3 0 -5 -7 -10 -15 -10 -8 0 -15 4 -15 8 0 8 31 23
43 21 4 -1 7 3 7 8 0 14 -7 13 -35 -6 -14 -9 -25 -22 -25 -30 0 -8 -7 -11 -17
-8 -14 5 -15 4 -4 -4 8 -6 21 -7 30 -4 14 5 14 4 2 -11 -8 -10 -11 -20 -7 -24
3 -3 6 0 6 8 0 8 6 4 16 -9 8 -12 13 -28 11 -35 -3 -7 -6 -5 -6 5 -1 10 -4 17
-8 16 -15 -3 -43 14 -38 22 3 5 2 11 -3 14 -4 2 -8 -15 -8 -39 0 -24 3 -43 6
-43 21 2 29 -4 23 -19 -5 -12 -3 -14 8 -8 12 7 12 6 1 -7 -7 -9 -12 -22 -11
-30 1 -7 1 -50 0 -95 -1 -67 -4 -83 -16 -83 -13 0 -15 -22 -15 -140 0 -118 2
-140 15 -140 8 0 15 -6 15 -14 0 -8 7 -17 16 -20 21 -8 9 -21 -19 -21 -19 0
-22 -6 -25 -48 -3 -38 0 -47 13 -47 9 0 14 -4 10 -9 -3 -6 4 -15 15 -21 17 -9
20 -21 20 -80 0 -56 -3 -70 -15 -70 -8 0 -15 -7 -15 -15 0 -8 -7 -15 -15 -15
-11 0 -15 -12 -15 -50 0 -46 2 -50 24 -50 14 0 28 -4 31 -10 3 -5 -1 -10 -9
-10 -9 0 -16 -7 -16 -15 0 -9 -7 -18 -15 -21 -20 -8 -20 -64 0 -64 8 0 15 -6
15 -14 0 -8 7 -17 16 -20 8 -3 13 -10 10 -15 -3 -5 4 -11 15 -14 12 -3 18 -10
14 -16 -5 -10 7 -15 28 -12 4 0 7 -5 7 -12 0 -7 9 -20 20 -30 25 -21 186 -26
174 -4 -6 9 -4 9 8 -1 11 -9 18 -10 23 -2 3 5 12 10 18 10 8 0 8 -3 -1 -9 -9
-5 5 -8 36 -7 40 1 48 4 39 14 -8 10 -7 12 4 10 8 -2 13 4 13 14 -1 10 4 14
13 11 10 -4 11 -9 4 -16 -16 -16 -13 -23 9 -23 12 0 16 4 11 9 -13 13 -2 38
13 31 6 -4 -2 6 -18 22 -17 16 -25 29 -18 32 7 2 10 7 8 11 -2 3 7 11 20 18
13 6 22 7 18 2 -3 -5 -1 -9 5 -9 5 0 13 5 16 10 4 7 12 7 25 0 24 -13 33 -13
25 0 -3 6 -1 10 5 10 6 0 9 4 6 8 -2 4 -1 14 3 21 6 10 10 9 14 -4 5 -10 3
-14 -5 -9 -7 5 -8 3 -3 -5 14 -24 28 5 14 30 l-12 24 22 -20 c16 -14 22 -15
19 -5 -2 8 -10 20 -18 27 -12 10 -13 14 -2 25 11 11 12 10 7 -3 -4 -10 0 -16
9 -16 11 0 13 5 5 18 -14 27 -11 33 9 18 16 -13 16 -12 3 4 -13 16 -13 20 0
28 8 5 9 9 2 9 -19 0 -43 29 -37 45 4 8 10 13 14 10 4 -2 8 7 8 20 0 14 -4 25
-9 25 -5 0 -9 5 -9 11 0 5 5 7 10 4 6 -3 10 -1 10 4 0 6 -4 11 -9 11 -15 0
-21 29 -8 42 15 15 20 61 6 53 -14 -9 -11 5 6 22 16 16 12 33 -8 33 -8 0 -8
-3 2 -9 8 -5 9 -11 3 -15 -14 -8 -20 14 -11 44 4 16 7 19 8 8 1 -10 5 -18 10
-18 5 0 7 9 4 20 -3 11 -9 20 -14 20 -5 0 -9 5 -9 11 0 5 4 8 9 5 17 -11 20
23 3 36 -15 12 -16 11 -3 -4 7 -10 9 -18 3 -18 -14 0 -23 28 -12 35 6 4 15 3
22 -1 7 -4 8 -3 4 5 -4 6 -16 9 -27 6 -11 -4 -19 -3 -18 2 4 22 -2 43 -11 38
-5 -3 -10 1 -10 9 0 9 -3 16 -8 16 -4 0 -13 9 -20 20 -12 21 -12 21 13 4 23
-15 25 -15 19 0 -3 9 -10 16 -16 16 -5 0 -2 8 8 17 11 11 13 18 5 21 -6 2 -8
9 -5 14 4 7 2 8 -4 4 -8 -5 -12 0 -12 13 0 12 5 21 11 21 5 0 7 -4 4 -10 -3
-6 1 -7 10 -4 14 6 14 8 -2 19 -15 11 -16 15 -3 31 9 11 10 15 3 10 -8 -4 -13
-1 -13 8 0 14 11 20 31 18 4 -1 5 9 2 21 -4 18 -3 19 6 7 7 -9 11 -10 11 -3 0
6 -4 14 -8 17 -4 3 -7 25 -7 50 1 25 -1 43 -5 41 -4 -2 -6 -25 -5 -49 2 -28
-3 -53 -12 -63 -8 -10 -11 -11 -7 -3 11 20 13 100 2 100 -4 0 -8 5 -8 11 0 5
5 7 12 3 8 -5 9 0 4 17 -14 43 -12 94 2 91 8 -1 11 2 7 8 -3 6 -11 7 -17 4 -7
-5 -9 1 -5 15 4 17 2 21 -8 17 -19 -7 -29 12 -16 28 11 14 5 26 -13 26 -7 0
-7 -3 0 -8 9 -5 9 -10 -1 -19 -7 -7 -17 -8 -26 -2 -11 7 -11 9 4 9 9 0 16 3
16 8 -4 21 2 32 14 26 7 -5 6 0 -3 11 -14 17 -13 18 5 12 17 -6 18 -5 4 5 -9
7 -14 18 -12 25 2 6 -1 14 -6 18 -6 3 -8 0 -5 -9 7 -18 -21 -16 -39 4 -10 11
-8 12 8 6 15 -6 17 -4 8 5 -14 14 -34 3 -27 -14 3 -8 -4 -13 -17 -14 -15 -1
-18 1 -10 10 6 9 7 18 0 27 -8 12 -9 11 -7 -4 2 -10 -3 -21 -10 -23 -8 -3 -10
1 -6 14 5 13 2 12 -10 -4 -10 -13 -22 -23 -28 -23 -6 0 -3 10 8 23 10 12 15
19 10 15 -5 -4 -15 0 -23 10 -13 15 -13 15 -4 -4z m-205 -26 c-12 -19 8 -27
31 -12 22 14 26 14 30 1 4 -10 19 -13 51 -12 24 2 44 -1 44 -7 0 -5 -4 -7 -9
-3 -5 3 -12 1 -16 -4 -3 -6 3 -8 15 -6 11 2 20 -1 20 -6 0 -6 5 -7 12 -3 6 4
8 3 5 -3 -9 -14 40 -46 56 -37 9 5 9 4 1 -5 -9 -10 -18 -9 -40 5 -16 11 -36
25 -43 33 -13 12 -18 10 -38 -14 -13 -15 -27 -24 -30 -21 -4 3 1 12 11 19 17
12 17 14 0 28 -16 12 -17 12 -11 -3 4 -12 2 -15 -8 -12 -10 4 -13 0 -11 -13 3
-14 -3 -18 -30 -19 -19 -1 -34 3 -34 8 0 5 5 6 10 3 6 -3 10 1 10 9 0 20 -5
20 -35 0 -14 -9 -25 -12 -26 -8 0 5 -2 19 -3 31 -2 15 2 20 13 16 13 -4 13 -3
2 5 -11 8 -11 10 0 15 8 3 4 4 -8 4 -14 -1 -20 -7 -18 -19 5 -24 -12 -33 -31
-17 -13 11 -15 10 -12 -7 1 -10 10 -25 18 -32 8 -8 0 -6 -19 5 -19 10 -35 26
-37 36 -1 11 0 16 3 13 4 -3 12 -1 20 5 7 6 13 9 13 5 0 -3 14 3 31 13 31 19
72 25 63 9z m260 -42 c-6 -20 -6 -20 9 -2 21 28 54 30 60 5 3 -12 10 -18 16
-14 18 10 13 0 -9 -20 -19 -17 -19 -17 -15 4 3 14 0 21 -8 18 -7 -2 -12 -11
-12 -20 0 -9 -4 -17 -10 -17 -18 0 -45 11 -44 18 3 20 -2 33 -11 27 -5 -3 -7
-12 -3 -20 3 -8 0 -15 -7 -15 -6 0 -8 5 -4 12 5 8 2 9 -10 5 -11 -4 -15 -3
-11 4 4 6 -2 13 -14 16 -32 8 -25 21 9 17 16 -2 32 1 35 6 11 18 36 -2 29 -24z
m91 14 c3 -5 1 -10 -4 -10 -6 0 -11 5 -11 10 0 6 2 10 4 10 3 0 8 -4 11 -10z
m-185 -74 c0 -6 -5 -3 -11 7 -9 15 -13 16 -27 5 -15 -12 -16 -11 -3 5 10 13
17 15 27 6 8 -6 14 -17 14 -23z m-305 -8 c5 4 5 2 1 -5 -9 -16 -33 -6 -33 14
0 14 1 14 12 -1 7 -8 16 -12 20 -8z m281 -3 c-1 -8 -5 -17 -8 -21 -5 -4 -4 16
1 34 3 9 9 -1 7 -13z m59 5 c4 -6 1 -9 -7 -8 -7 2 -12 -2 -11 -8 1 -6 -5 -11
-13 -11 -11 0 -11 4 3 19 19 21 20 21 28 8z m51 -18 c-17 -16 -18 -16 -5 5 7
12 15 20 18 17 3 -2 -3 -12 -13 -22z m-269 3 c0 -8 -4 -12 -9 -9 -5 3 -6 10
-3 15 9 13 12 11 12 -6z m-33 -7 c-3 -4 -9 -8 -15 -8 -5 0 -9 4 -9 8 0 5 7 9
15 9 8 0 12 -4 9 -9z m350 -24 c3 -8 2 -12 -4 -9 -6 3 -10 10 -10 16 0 14 7
11 14 -7z m90 -292 c3 -5 -1 -9 -9 -9 -8 0 -12 4 -9 9 3 4 7 8 9 8 2 0 6 -4 9
-8z m1 -102 c3 -5 2 -10 -4 -10 -5 0 -13 5 -16 10 -3 6 -2 10 4 10 5 0 13 -4
16 -10z m55 -340 c0 -5 -2 -10 -4 -10 -3 0 -8 5 -11 10 -3 6 -1 10 4 10 6 0
11 -4 11 -10z m0 -120 c0 -5 -2 -10 -4 -10 -3 0 -8 5 -11 10 -3 6 -1 10 4 10
6 0 11 -4 11 -10z m4 -105 c-9 -14 -18 -25 -20 -25 -2 0 2 11 8 25 6 14 15 25
20 25 5 0 1 -11 -8 -25z m-164 -131 c0 -8 -19 -13 -24 -6 -3 5 1 9 9 9 8 0 15
-2 15 -3z"/>
<path d="M585 1361 c-6 -11 13 -26 22 -17 4 3 1 6 -6 6 -7 0 -9 5 -6 10 3 6 4
10 1 10 -3 0 -7 -4 -11 -9z"/>
<path d="M653 1365 c4 -4 0 -17 -10 -27 -20 -22 -6 -24 24 -3 21 15 23 14 29
-9 4 -17 11 -23 22 -18 10 4 12 7 4 10 -8 2 -4 11 10 22 23 19 7 23 -21 6 -9
-6 -12 -5 -7 2 3 6 2 13 -3 16 -5 4 -13 2 -16 -4 -5 -8 -12 -7 -23 2 -10 7
-14 8 -9 3z"/>
<path d="M551 1346 c-9 -10 -9 -16 -1 -21 6 -4 14 -4 17 -1 4 3 1 6 -7 6 -10
0 -10 3 0 15 7 8 10 15 7 15 -2 0 -10 -6 -16 -14z"/>
<path d="M760 1355 c0 -2 6 -8 13 -14 10 -8 14 -7 14 2 0 8 -6 14 -14 14 -7 0
-13 -1 -13 -2z"/>
<path d="M895 1359 c-4 -6 -14 -8 -24 -4 -12 5 -13 4 -4 -6 9 -9 16 -9 26 -1
8 7 18 8 22 4 5 -4 5 -1 1 6 -9 15 -13 15 -21 1z"/>
<path d="M949 1351 c-1 -3 -1 -9 0 -13 0 -5 -3 -8 -9 -8 -16 0 -12 -17 6 -24
10 -4 14 -2 11 6 -2 7 2 20 9 29 12 13 12 16 -1 16 -8 0 -16 -3 -16 -6z"/>
<path d="M515 1410 c-4 -6 -10 -8 -15 -5 -5 3 -11 1 -14 -4 -8 -12 14 -8 39 7
11 6 15 12 8 12 -6 0 -15 -5 -18 -10z"/>
<path d="M740 1400 c0 -5 5 -10 11 -10 5 0 7 5 4 10 -3 6 -8 10 -11 10 -2 0
-4 -4 -4 -10z"/>
<path d="M845 1400 c-3 -5 -1 -10 4 -10 6 0 11 5 11 10 0 6 -2 10 -4 10 -3 0
-8 -4 -11 -10z"/>
<path d="M1085 1185 c11 -9 19 -19 18 -23 -1 -4 0 -9 2 -10 2 -2 2 4 1 13 -1
10 -11 22 -22 27 -18 9 -17 8 1 -7z"/>
<path d="M1070 1164 c0 -6 7 -19 16 -30 14 -18 14 -18 3 6 -14 31 -19 36 -19
24z"/>
<path d="M1115 460 c-8 -13 9 -20 24 -11 10 6 9 10 -3 14 -8 3 -18 2 -21 -3z"/>
<path d="M1115 330 c3 -5 8 -10 11 -10 2 0 4 5 4 10 0 6 -5 10 -11 10 -5 0 -7
-4 -4 -10z"/>
<path d="M1011 126 c-10 -11 -9 -14 1 -12 14 2 23 15 15 22 -2 2 -10 -2 -16
-10z"/>
<path d="M975 120 c-3 -5 -3 -10 2 -10 4 0 1 -5 -7 -11 -12 -8 -12 -10 -1 -7
8 2 15 12 17 21 3 19 -2 22 -11 7z"/>
</g>
</svg>
